<svg preserveAspectRatio="none" width="100%" height="100%" overflow="visible" style="display: block;" viewBox="0 0 26.6702 25.3351" fill="none" xmlns="http://www.w3.org/2000/svg">
<g id="Star">
<path id="Star_2" d="M21.2252 15.7601C20.8798 16.0947 20.7212 16.5787 20.7998 17.0534L21.9852 23.6134C22.0852 24.1694 21.8505 24.7321 21.3852 25.0534C20.9292 25.3867 20.3225 25.4267 19.8252 25.1601L13.9198 22.0801C13.7145 21.9707 13.4865 21.9121 13.2532 21.9054H12.8918C12.7665 21.9241 12.6438 21.9641 12.5318 22.0254L6.62517 25.1201C6.33317 25.2667 6.0025 25.3187 5.6785 25.2667C4.88917 25.1174 4.3625 24.3654 4.49183 23.5721L5.6785 17.0121C5.75717 16.5334 5.5985 16.0467 5.25317 15.7067L0.438501 11.0401C0.0358344 10.6494 -0.104166 10.0627 0.0798344 9.53341C0.258501 9.00541 0.714501 8.62008 1.26517 8.53341L7.89183 7.57208C8.39583 7.52008 8.8385 7.21341 9.06517 6.76008L11.9852 0.773415C12.0545 0.640081 12.1438 0.517415 12.2518 0.413415L12.3718 0.320081C12.4345 0.250748 12.5065 0.193415 12.5865 0.146748L12.7318 0.0934147L12.9585 8.13603e-05H13.5198C14.0212 0.0520814 14.4625 0.352081 14.6932 0.800081L17.6518 6.76008C17.8652 7.19608 18.2798 7.49875 18.7585 7.57208L25.3852 8.53341C25.9452 8.61341 26.4132 9.00008 26.5985 9.53341C26.7732 10.0681 26.6225 10.6547 26.2118 11.0401L21.2252 15.7601Z" fill="var(--fill-0, #3D9FD4)"/>
</g>
</svg>
